<?xml version="1.0" standalone="no"?><!DOCTYPE svg PUBLIC "-//W3C//DTD SVG 1.1//EN" "http://www.w3.org/Graphics/SVG/1.1/DTD/svg11.dtd"><svg t="1740297889074" class="icon" viewBox="0 0 1478 1024" version="1.1" xmlns="http://www.w3.org/2000/svg" p-id="2531" xmlns:xlink="http://www.w3.org/1999/xlink" width="288.671875" height="200"><path d="M1098.543 54.343c42.355-3.027 83.952 0.757 124.791 11.343 40.84 10.589 77.145 23.698 108.91 39.327 31.763 15.629 57.48 32.27 77.141 49.915 19.664 17.648 29.496 32.52 29.496 44.623 0 12.101-7.564 19.412-22.688 21.933-15.127 2.521-34.033 4.789-56.723 6.808-22.688 2.016-47.646 5.798-74.873 11.343-27.225 5.548-52.942 17.901-77.145 37.059-16.133 12.101-31.509 25.465-46.132 40.084a1710.778 1710.778 0 0 1-43.867 42.353c-14.621 13.614-29.749 26.219-45.378 37.814-15.629 11.599-32.522 20.42-50.672 26.471-9.075 3.026-20.168 6.049-33.277 9.075-13.11 3.023-26.976 3.783-41.597 2.268-14.621-1.511-29.749-6.302-45.378-14.369s-30.503-21.682-44.619-40.838c-9.078 12.101-16.891 26.47-23.447 43.11-6.554 16.639-12.351 34.536-17.398 53.696-5.04 19.163-9.324 39.076-12.858 59.75-3.525 20.674-6.298 40.082-8.32 58.236-2.014 15.127-3.525 34.033-4.535 56.721-1.009 22.69-1.262 45.128-0.758 67.311 0.505 22.188 1.767 42.609 3.784 61.261 2.014 18.657 5.04 32.015 9.072 40.086 5.043 9.075 7.564 16.639 7.564 22.688 0 5.043-2.521 9.834-7.564 14.372-5.04 4.54-14.621 6.808-28.736 6.808-16.136 0-26.977-2.268-32.524-6.808-5.546-4.538-8.32-9.327-8.32-14.372-1.009-6.049 1.009-13.107 6.049-21.176 5.043-10.081 8.321-21.933 9.836-35.544 1.511-13.613 2.017-28.237 1.511-43.867s-1.262-31.509-2.272-47.646c-1.011-16.136-1.513-31.762-1.513-46.889-16.133-32.272-31.763-59.497-46.889-81.683s-31.765-43.358-49.917-63.53c-11.092 24.202-23.947 42.352-38.573 54.451-14.618 12.104-29.495 20.424-44.621 24.958-15.127 4.538-29.495 6.554-43.108 6.053-13.612-0.503-25.462-1.761-35.546-3.779-18.15-3.026-35.294-8.826-51.428-17.398-16.133-8.572-32.27-18.15-48.404-28.736-16.133-10.589-32.522-21.936-49.157-34.037-16.639-12.098-33.532-22.688-50.674-31.765-26.219-15.128-53.193-23.195-80.922-24.201-27.732-1.013-52.942-0.253-75.632 2.268-22.688 2.524-41.344 3.532-55.966 3.026-14.626-0.503-21.938-7.309-21.938-20.422 0-13.11 8.32-29.747 24.957-49.917 16.64-20.167 38.825-40.082 66.557-59.748s60.25-37.311 97.563-52.94c37.313-15.631 76.64-25.463 117.983-29.496 63.53-6.051 116.219-2.775 158.066 9.832 41.851 12.603 74.622 30.502 98.32 53.698 23.695 23.195 38.57 49.915 44.621 80.171 6.049 30.248 5.041 60.502-3.026 90.754 32.27 29.243 64.031 66.559 95.296 111.933 5.04-49.413 17.648-99.33 37.814-149.749 8.065-17.142 15.629-31.763 22.69-43.867 7.058-12.099 15.629-25.209 25.714-39.325-16.136-29.243-24.455-60.504-24.958-93.783-0.505-33.276 9.075-64.537 28.736-93.78 19.664-29.243 50.173-54.202 91.515-74.873s95.798-33.025 163.361-37.058zM647.787 470.308c-56.471-48.402-115.965-79.662-178.485-93.782-62.523-14.116-127.06-12.605-193.613 4.539-2.017 0-2.522 0.251-1.513 0.757 1.008 0.503 2.522 0.755 4.539 0.755 29.244-3.024 58.992-4.284 89.243-3.779 30.251 0.502 60.755 5.041 91.514 13.611 30.757 8.572 61.26 21.177 91.51 37.814 30.252 16.639 60.001 39.081 89.244 67.315l7.562-27.23z m555.129-287.396c2.017 0 3.528-0.253 4.535-0.758 1.013-0.503 0.003-0.755-3.02-0.755-73.615-7.059-140.17 4.286-199.668 34.035s-111.933 73.36-157.311 130.839l15.127 25.714c27.228-37.309 55.209-68.066 83.948-92.269 28.739-24.202 57.983-43.361 87.731-57.48 29.749-14.116 58.737-23.949 86.975-29.496 28.237-5.543 55.465-8.821 81.683-9.83zM413.333 955.856c-8.065-7.061-5.545-15.38 7.564-24.958 13.11-9.583 32.271-19.415 57.48-29.496 25.209-10.084 53.696-20.424 85.462-31.011 31.765-10.589 62.269-19.914 91.512-27.984 13.112-4.032 23.447-3.783 31.011 0.757 7.562 4.54 14.621 10.34 21.174 17.395 6.556 7.061 14.621 13.868 24.201 20.421 9.58 6.554 23.449 9.834 41.602 9.834 18.15 0 32.015-3.278 41.597-9.834 9.577-6.551 17.897-13.107 24.955-19.658 7.058-6.558 14.118-12.107 21.176-16.642 7.061-4.54 17.144-5.297 30.254-2.272 29.243 8.069 59.999 17.651 92.269 28.739 32.27 11.092 61.258 21.936 86.975 32.525 25.714 10.586 45.125 20.671 58.232 30.248 13.11 9.58 14.625 16.891 4.54 21.936-24.202 13.11-56.723 23.949-97.564 32.522-40.837 8.572-85.208 14.872-133.109 18.907-47.895 4.032-97.309 6.049-148.233 6.049-50.926 0-99.077-2.268-144.455-6.805-45.378-4.54-85.715-11.092-121.008-19.664s-60.506-18.907-75.634-31.007z" p-id="2532" fill="#36c66a"></path></svg>